<svg width="25" height="25" viewBox="0 0 25 25" fill="none" xmlns="http://www.w3.org/2000/svg">
<path d="M12.5 2.45337L12.824 2.45837C15.4467 2.54339 17.9309 3.65591 19.7408 5.55598C21.5507 7.45605 22.5412 9.99138 22.4987 12.6151C22.4562 15.2389 21.384 17.7408 19.5136 19.5812C17.6431 21.4217 15.1241 22.4531 12.5 22.4531C9.8759 22.4531 7.35694 21.4217 5.48645 19.5812C3.61596 17.7408 2.54383 15.2389 2.50131 12.6151C2.4588 9.99138 3.4493 7.45605 5.25918 5.55598C7.06906 3.65591 9.55328 2.54339 12.176 2.45837L12.5 2.45337ZM13.113 7.66337C12.912 7.50796 12.6594 7.43488 12.4065 7.45897C12.1536 7.48306 11.9193 7.60252 11.7513 7.79309C11.5832 7.98366 11.494 8.23104 11.5018 8.48499C11.5095 8.73893 11.6137 8.98041 11.793 9.16037L14.084 11.4534H8.5L8.383 11.4604C8.12991 11.4905 7.89786 11.6161 7.73427 11.8115C7.57068 12.007 7.48789 12.2575 7.50283 12.512C7.51777 12.7664 7.6293 13.0056 7.81463 13.1805C7.99997 13.3555 8.24512 13.4531 8.5 13.4534H14.084L11.793 15.7464L11.71 15.8404C11.5546 16.0414 11.4815 16.294 11.5056 16.5469C11.5297 16.7998 11.6492 17.0341 11.8397 17.2021C12.0303 17.3702 12.2777 17.4594 12.5316 17.4516C12.7856 17.4438 13.027 17.3397 13.207 17.1604L17.207 13.1604L17.28 13.0784L17.344 12.9894L17.406 12.8764L17.45 12.7664L17.48 12.6544L17.497 12.5284L17.5 12.4534L17.493 12.3354L17.464 12.1874L17.429 12.0824L17.375 11.9694L17.304 11.8584C17.2745 11.8187 17.242 11.7813 17.207 11.7464L13.207 7.74637L13.113 7.66337Z" fill="#27C840"/>
</svg>
